<svg id="visual" viewBox="0 0 744 1133" width="450" height="710" xmlns="http://www.w3.org/2000/svg" xmlns:xlink="http://www.w3.org/1999/xlink" version="1.1"><rect x="0" y="0" width="744" height="1133" fill="#000000"></rect><path d="M0 727L44 733L88 706L131 672L175 711L219 697L263 682L306 653L350 695L394 693L438 658L481 686L525 649L569 659L613 669L656 670L700 648L744 704L744 1134L700 1134L656 1134L613 1134L569 1134L525 1134L481 1134L438 1134L394 1134L350 1134L306 1134L263 1134L219 1134L175 1134L131 1134L88 1134L44 1134L0 1134Z" fill="#2ebd59"></path><path d="M0 700L44 783L88 707L131 715L175 703L219 706L263 761L306 747L350 783L394 722L438 710L481 734L525 761L569 745L613 726L656 756L700 795L744 781L744 1134L700 1134L656 1134L613 1134L569 1134L525 1134L481 1134L438 1134L394 1134L350 1134L306 1134L263 1134L219 1134L175 1134L131 1134L88 1134L44 1134L0 1134Z" fill="#24a240"></path><path d="M0 767L44 825L88 787L131 778L175 775L219 806L263 777L306 789L350 769L394 769L438 828L481 772L525 759L569 780L613 761L656 768L700 762L744 794L744 1134L700 1134L656 1134L613 1134L569 1134L525 1134L481 1134L438 1134L394 1134L350 1134L306 1134L263 1134L219 1134L175 1134L131 1134L88 1134L44 1134L0 1134Z" fill="#188828"></path><path d="M0 894L44 837L88 817L131 851L175 834L219 890L263 873L306 832L350 892L394 894L438 828L481 865L525 825L569 858L613 880L656 857L700 890L744 895L744 1134L700 1134L656 1134L613 1134L569 1134L525 1134L481 1134L438 1134L394 1134L350 1134L306 1134L263 1134L219 1134L175 1134L131 1134L88 1134L44 1134L0 1134Z" fill="#096e0f"></path><path d="M0 940L44 912L88 908L131 874L175 927L219 891L263 917L306 884L350 893L394 874L438 898L481 916L525 935L569 889L613 901L656 911L700 941L744 892L744 1134L700 1134L656 1134L613 1134L569 1134L525 1134L481 1134L438 1134L394 1134L350 1134L306 1134L263 1134L219 1134L175 1134L131 1134L88 1134L44 1134L0 1134Z" fill="#005500"></path><path d="M0 942L44 954L88 993L131 991L175 969L219 984L263 989L306 968L350 945L394 943L438 984L481 960L525 966L569 960L613 991L656 993L700 939L744 952L744 1134L700 1134L656 1134L613 1134L569 1134L525 1134L481 1134L438 1134L394 1134L350 1134L306 1134L263 1134L219 1134L175 1134L131 1134L88 1134L44 1134L0 1134Z" fill="#003d00"></path><path d="M0 1013L44 992L88 1024L131 1009L175 996L219 1043L263 1034L306 1040L350 1010L394 1008L438 1038L481 1024L525 991L569 1021L613 1013L656 1024L700 998L744 1031L744 1134L700 1134L656 1134L613 1134L569 1134L525 1134L481 1134L438 1134L394 1134L350 1134L306 1134L263 1134L219 1134L175 1134L131 1134L88 1134L44 1134L0 1134Z" fill="#002700"></path><path d="M0 1084L44 1087L88 1074L131 1068L175 1067L219 1046L263 1081L306 1080L350 1073L394 1083L438 1068L481 1073L525 1051L569 1093L613 1062L656 1048L700 1056L744 1056L744 1134L700 1134L656 1134L613 1134L569 1134L525 1134L481 1134L438 1134L394 1134L350 1134L306 1134L263 1134L219 1134L175 1134L131 1134L88 1134L44 1134L0 1134Z" fill="#000000"></path></svg>