<svg id="visual" viewBox="0 0 1350 1300" width="650" height="1000" xmlns="http://www.w3.org/2000/svg" xmlns:xlink="http://www.w3.org/1999/xlink" version="1.1"><rect x="0" y="0" width="1350" height="1300" fill="#000000"></rect><path d="M0 1148L32.2 1154.8C64.3 1161.7 128.7 1175.3 193 1178.8C257.3 1182.3 321.7 1175.7 386 1162.5C450.3 1149.3 514.7 1129.7 578.8 1131.2C643 1132.7 707 1155.3 771.2 1173.7C835.3 1192 899.7 1206 964 1211.3C1028.3 1216.7 1092.7 1213.3 1157 1195.5C1221.3 1177.7 1285.7 1145.3 1317.8 1129.2L1350 1113L1350 1301L1317.8 1301C1285.7 1301 1221.3 1301 1157 1301C1092.7 1301 1028.3 1301 964 1301C899.7 1301 835.3 1301 771.2 1301C707 1301 643 1301 578.8 1301C514.7 1301 450.3 1301 386 1301C321.7 1301 257.3 1301 193 1301C128.7 1301 64.3 1301 32.2 1301L0 1301Z" fill="#2EBD59" stroke-linecap="round" stroke-linejoin="miter"></path></svg>